<?xml version="1.0" encoding="UTF-8" standalone="no"?>
<!DOCTYPE svg PUBLIC "-//W3C//DTD SVG 1.1//EN"
 "http://www.w3.org/Graphics/SVG/1.1/DTD/svg11.dtd">
<!-- Generated by graphviz version 2.43.0 (0)
 -->
<!-- Title: ExecutionTree Pages: 1 -->
<svg width="48pt" height="66pt"
 viewBox="0.00 0.00 47.80 65.60" xmlns="http://www.w3.org/2000/svg" xmlns:xlink="http://www.w3.org/1999/xlink">
<g id="graph0" class="graph" transform="scale(1 1) rotate(0) translate(4 61.6)">
<title>ExecutionTree</title>
<polygon fill="white" stroke="transparent" points="-4,4 -4,-61.6 43.8,-61.6 43.8,4 -4,4"/>
<!-- N1 -->
<g id="node1" class="node">
<title>N1</title>
<g id="a_node1"><a xlink:title="Conditional&#10;node: 1&#10;state: 0&#10;asm: 25">
<ellipse fill="darkgrey" stroke="darkgrey" cx="19.4" cy="-52.2" rx="5.4" ry="5.4"/>
</a>
</g>
</g>
<!-- N2 -->
<g id="node2" class="node">
<title>N2</title>
<g id="a_node2"><a xlink:title="Exit&#10;node: 2&#10;state: 2&#10;asm: 51">
<ellipse fill="green" stroke="green" cx="5.4" cy="-5.4" rx="5.4" ry="5.4"/>
</a>
</g>
</g>
<!-- N1&#45;&gt;N2 -->
<g id="edge1" class="edge">
<title>N1&#45;&gt;N2</title>
<path fill="none" stroke="darkgrey" d="M18.01,-46.74C16.12,-40.7 12.66,-29.65 9.85,-20.63"/>
<polygon fill="darkgrey" stroke="darkgrey" points="13.11,-19.34 6.79,-10.84 6.43,-21.43 13.11,-19.34"/>
</g>
<!-- N3 -->
<g id="node3" class="node">
<title>N3</title>
<g id="a_node3"><a xlink:title="Exit&#10;node: 3&#10;state: 1&#10;asm: 51">
<ellipse fill="green" stroke="green" cx="34.4" cy="-5.4" rx="5.4" ry="5.4"/>
</a>
</g>
</g>
<!-- N1&#45;&gt;N3 -->
<g id="edge2" class="edge">
<title>N1&#45;&gt;N3</title>
<path fill="none" stroke="darkgrey" d="M20.89,-46.74C22.94,-40.64 26.7,-29.4 29.73,-20.33"/>
<polygon fill="darkgrey" stroke="darkgrey" points="33.06,-21.44 32.91,-10.84 26.42,-19.21 33.06,-21.44"/>
</g>
</g>
</svg>
